<?xml version="1.0" standalone="no"?>
<!DOCTYPE svg PUBLIC "-//W3C//DTD SVG 20010904//EN"
 "http://www.w3.org/TR/2001/REC-SVG-20010904/DTD/svg10.dtd">
<svg version="1.0" xmlns="http://www.w3.org/2000/svg"
 width="972.000000pt" height="1280.000000pt" viewBox="0 0 972.000000 1280.000000"
 preserveAspectRatio="xMidYMid meet">
<metadata>
Created by potrace 1.15, written by Peter Selinger 2001-2017
</metadata>
<g transform="translate(0.000000,1280.000000) scale(0.100000,-0.100000)"
fill="#5a33c1" stroke="none">
<path d="M3009 12786 c-26 -7 -92 -41 -147 -75 -104 -65 -130 -93 -169 -181
-11 -25 -81 -144 -155 -265 -74 -121 -167 -278 -208 -350 -40 -71 -101 -175
-135 -230 -93 -152 -109 -199 -109 -326 0 -138 22 -186 132 -290 106 -101 125
-114 1692 -1161 762 -508 1473 -985 1580 -1059 107 -75 364 -252 570 -395
1004 -697 1672 -1139 2243 -1483 209 -127 239 -137 338 -107 104 30 176 82
337 243 l152 153 0 -84 0 -84 -85 -168 c-68 -135 -119 -217 -252 -404 -266
-376 -516 -712 -544 -733 -36 -26 -171 -40 -339 -34 -209 7 -519 35 -695 63
-235 36 -344 51 -600 79 -126 14 -513 59 -860 101 -346 41 -763 90 -925 110
-162 19 -407 48 -543 65 -137 16 -258 27 -268 24 -11 -4 -26 -19 -34 -35 -12
-23 -28 -33 -75 -46 -108 -30 -204 -127 -216 -216 -3 -24 2 -81 10 -128 45
-240 48 -266 37 -306 -16 -58 -166 -278 -462 -674 -79 -105 -93 -109 -177 -51
-69 46 -144 77 -294 121 l-108 32 -56 -44 c-78 -59 -90 -78 -125 -198 -37
-128 -148 -411 -196 -500 -49 -90 -102 -155 -186 -225 -85 -72 -100 -96 -92
-150 19 -131 19 -128 -18 -176 -18 -25 -89 -110 -156 -189 -163 -192 -244
-301 -326 -440 -92 -155 -150 -240 -419 -620 -283 -400 -352 -493 -550 -740
-86 -107 -197 -253 -246 -325 -49 -71 -121 -165 -159 -208 -78 -87 -132 -183
-155 -273 -21 -83 -20 -113 7 -162 32 -60 150 -177 205 -203 26 -13 128 -72
227 -133 99 -60 226 -137 281 -171 160 -98 304 -146 389 -131 34 6 57 24 153
123 98 101 119 129 157 207 25 53 107 181 195 306 84 118 187 267 230 331 43
64 113 165 157 225 44 60 96 135 116 167 95 149 367 689 494 982 36 83 126
270 200 417 126 252 137 269 176 292 23 14 65 28 92 32 69 9 90 22 162 95 74
76 116 133 270 366 83 125 132 189 175 225 66 58 115 126 124 173 3 20 22 48
50 74 39 37 44 46 44 86 0 105 -73 182 -217 229 l-51 17 58 132 c70 162 79
176 373 614 162 240 237 360 237 379 0 14 -11 68 -25 120 -35 128 -32 134 79
134 46 0 299 -20 562 -45 264 -25 580 -55 704 -66 155 -14 262 -30 345 -50 73
-18 185 -35 285 -44 407 -38 600 -58 805 -87 121 -17 272 -34 335 -38 63 -5
202 -22 309 -39 362 -57 616 -66 726 -26 106 38 106 37 516 641 212 313 422
630 467 704 44 74 117 186 161 248 126 178 151 265 107 369 -14 35 -26 72 -26
83 0 31 -33 89 -79 142 -47 53 -171 140 -225 158 l-36 11 52 77 c28 42 102
150 165 239 62 88 113 171 113 183 0 12 -7 43 -14 69 -8 25 -25 105 -38 176
-24 143 -40 170 -109 191 -19 6 -410 267 -869 581 -1669 1138 -1653 1127
-1816 1212 -97 50 -235 144 -1378 939 -313 217 -638 437 -722 489 -247 149
-594 384 -1034 699 -141 101 -277 192 -303 203 -107 46 -273 63 -368 37z m181
-227 c27 -28 57 -43 132 -68 54 -18 100 -37 103 -41 3 -5 -1 -23 -10 -39 -32
-62 -46 6 240 -1161 176 -719 199 -819 192 -827 -3 -3 -54 28 -114 69 -143 99
-142 98 -122 68 9 -14 61 -60 117 -102 97 -76 154 -141 136 -158 -5 -4 -170
102 -367 237 -197 134 -363 243 -369 241 -6 -2 76 -69 183 -148 292 -216 281
-213 -67 16 -205 134 -382 267 -482 359 -71 66 -73 67 -97 51 -13 -9 -29 -16
-34 -16 -26 0 -83 79 -117 161 -21 50 -41 92 -46 95 -4 3 -8 -27 -8 -66 l0
-70 -27 6 c-68 16 -101 46 -124 111 -8 26 -7 39 7 69 15 31 16 42 5 78 -27 91
-27 92 26 154 76 88 125 156 313 432 272 398 317 460 398 543 68 68 78 76 87
60 6 -10 26 -34 45 -54z m391 -65 c98 -29 212 -95 203 -118 -5 -12 -12 -12
-50 4 -77 33 -144 50 -144 37 0 -24 39 -75 74 -97 52 -32 38 -36 -21 -7 -76
40 -133 114 -133 177 0 24 2 24 71 4z m102 -252 c326 -156 629 -355 939 -615
59 -49 156 -124 215 -166 112 -79 123 -94 104 -144 l-10 -26 -131 79 c-71 44
-130 75 -130 70 0 -5 46 -45 102 -87 133 -102 176 -140 194 -175 35 -67 345
-1280 331 -1294 -1 -1 -58 28 -127 66 -69 38 -129 70 -133 70 -24 1 10 -28
128 -107 111 -75 133 -95 152 -133 24 -50 53 -176 53 -230 0 -19 7 -57 15 -84
8 -27 15 -53 15 -58 0 -17 -28 -6 -117 46 -51 30 -93 51 -93 46 0 -5 35 -33
78 -61 80 -53 147 -111 163 -141 8 -16 7 -17 -16 -8 -15 6 -36 15 -48 21 -42
22 -1342 862 -1364 882 -20 18 -41 73 -31 83 3 2 144 -90 313 -206 196 -133
313 -206 319 -200 13 13 -2 24 -298 227 -193 132 -267 189 -291 222 -30 41
-125 302 -125 344 0 9 -11 24 -25 33 -23 15 -25 22 -25 90 0 59 -17 140 -90
426 -100 394 -132 544 -155 734 -10 79 -26 153 -41 192 -22 56 -34 172 -18
172 3 0 69 -31 147 -68z m264 15 c27 -19 196 -134 376 -256 181 -123 326 -225
324 -228 -5 -4 -718 476 -747 503 -26 25 -1 15 47 -19z m1831 -1364 c441 -300
802 -549 802 -553 0 -14 -59 -32 -82 -26 -13 3 -401 279 -863 612 -462 334
-874 629 -915 657 -41 27 -77 51 -79 53 -1 1 0 7 3 13 4 6 73 -35 169 -100 89
-61 523 -356 965 -656z m82 -177 c355 -251 647 -461 649 -467 1 -6 -34 8 -79
31 -45 23 -87 39 -93 37 -11 -3 61 -57 158 -117 31 -19 63 -47 71 -62 12 -24
20 -108 10 -108 -2 0 -36 18 -76 40 -40 22 -75 39 -76 37 -2 -2 35 -30 84 -63
101 -69 125 -104 142 -209 6 -38 40 -157 75 -265 35 -107 80 -253 100 -324 56
-201 325 -1214 325 -1226 0 -5 -7 -10 -16 -10 -13 0 -12 -5 5 -26 12 -15 21
-31 21 -36 0 -29 -292 172 -334 230 -26 35 -208 157 -1036 695 -1492 969
-1714 1117 -1674 1117 18 0 207 -116 434 -265 728 -480 1021 -668 1410 -905
527 -321 807 -489 844 -504 69 -29 94 -19 75 31 -14 38 -45 70 -97 100 -62 37
-62 22 0 -18 46 -30 50 -34 29 -37 -26 -4 -156 57 -381 177 -149 80 -400 241
-1401 893 -862 563 -989 647 -989 654 0 3 12 -2 28 -12 15 -10 266 -169 557
-354 292 -186 663 -421 825 -524 162 -103 299 -188 304 -189 4 -1 10 3 12 9 3
6 -18 21 -46 34 -57 27 -128 97 -158 156 -23 46 -56 153 -49 160 3 3 177 -92
388 -212 210 -119 391 -219 401 -222 43 -11 10 17 -90 77 -59 36 -195 121
-302 189 -107 69 -244 156 -305 193 -60 37 -116 78 -124 90 -11 19 -61 187
-61 206 0 3 19 2 42 -1 53 -9 107 -42 527 -323 183 -123 335 -222 337 -221 10
11 -21 97 -44 121 -36 38 -170 110 -259 140 -115 39 -532 299 -568 353 -10 16
-47 137 -82 269 -130 493 -214 827 -209 832 7 7 138 -75 326 -203 224 -152
565 -358 525 -317 -18 19 -517 354 -655 441 -74 46 -150 95 -168 109 -42 31
-72 91 -72 143 l0 41 188 -127 c412 -281 615 -415 728 -481 246 -145 227 -128
-171 142 -643 438 -755 517 -770 538 -15 22 -20 68 -9 80 4 3 34 -13 68 -37
33 -24 351 -249 706 -500z m-3314 236 c-14 -13 -91 49 -112 90 -25 48 -15 44
51 -22 35 -35 63 -66 61 -68z m4359 -795 c167 -104 234 -149 843 -565 315
-215 372 -258 372 -278 0 -13 -5 -24 -10 -24 -6 0 -82 41 -170 91 -88 51 -163
89 -166 86 -8 -7 44 -44 186 -132 132 -82 183 -123 205 -166 8 -15 100 -323
206 -685 105 -363 219 -756 254 -874 53 -183 65 -215 81 -215 12 0 20 8 22 21
2 12 -38 171 -88 355 -51 184 -151 552 -225 819 -73 267 -135 498 -139 514
l-7 28 48 -28 c120 -70 141 -77 172 -64 36 14 46 9 211 -99 65 -43 180 -111
257 -150 76 -40 187 -107 246 -151 76 -55 128 -85 175 -101 37 -12 79 -28 94
-36 33 -16 58 -61 58 -102 0 -17 5 -62 12 -101 10 -58 10 -77 -3 -117 -9 -29
-118 -202 -267 -426 -139 -208 -271 -415 -293 -460 -51 -103 -84 -147 -110
-147 -29 0 -24 45 10 89 16 20 68 99 116 176 49 77 173 266 275 421 213 318
238 362 216 370 -8 3 -23 4 -33 2 -10 -2 -117 -152 -258 -363 -327 -489 -497
-719 -562 -762 -40 -26 -116 -22 -193 11 -36 16 -96 39 -135 52 -141 49 -220
101 -700 457 -110 81 -201 151 -203 155 -1 4 12 16 29 26 l31 18 -45 32 c-24
17 -79 55 -121 84 -108 74 -118 93 -110 212 l6 95 -100 395 c-55 217 -133 532
-172 700 -39 168 -82 344 -96 392 -13 48 -24 103 -24 122 0 20 -13 72 -29 116
-16 44 -27 80 -23 80 4 0 29 -7 57 -15 l49 -15 -39 41 -40 41 53 -26 c36 -18
58 -37 68 -59 10 -21 39 -47 82 -73 37 -23 182 -113 322 -201 230 -144 402
-234 418 -219 8 9 -1 16 -413 278 -539 343 -570 364 -584 394 -14 31 -5 97 13
87 6 -4 83 -51 171 -106z m1125 -658 c111 -69 148 -99 125 -99 -6 0 -244 157
-259 171 -27 24 16 1 134 -72z m1341 -1946 c77 -58 196 -169 211 -197 31 -58
23 -182 -19 -290 -19 -48 -150 -257 -439 -703 -113 -175 -279 -431 -368 -569
-147 -230 -164 -253 -197 -263 -21 -6 -53 -29 -75 -54 -57 -64 -82 -77 -144
-77 -38 0 -72 8 -109 26 -30 14 -74 28 -98 31 -24 3 -43 11 -43 18 0 6 -9 20
-20 30 -34 31 -381 82 -640 95 -409 20 -547 30 -1050 80 -278 27 -633 59 -790
70 -191 14 -338 30 -445 49 -138 26 -204 31 -487 42 -179 6 -338 9 -352 5 -14
-3 -40 -19 -58 -35 -19 -16 -53 -34 -76 -40 -70 -19 -72 -43 -22 -216 27 -94
26 -132 -6 -180 -63 -95 -219 -295 -231 -295 -16 0 -16 3 2 47 38 90 9 53
-230 -301 -121 -179 -224 -326 -229 -326 -5 0 -42 25 -83 57 -76 58 -93 87
-75 127 14 30 278 405 526 745 l199 275 -21 60 c-12 34 -22 71 -22 84 0 13 -6
22 -16 22 -20 0 -56 82 -52 118 4 35 77 76 167 93 70 13 313 8 516 -11 219
-21 707 -81 733 -91 l27 -11 -34 -14 c-23 -10 -31 -18 -25 -24 10 -10 375 -54
869 -104 363 -37 437 -43 775 -66 413 -27 440 -30 687 -76 107 -20 140 -23
170 -15 52 15 135 13 281 -4 135 -16 188 -11 270 25 59 26 368 335 378 378 18
83 49 138 148 265 42 53 45 62 40 100 -6 41 -1 49 165 304 94 143 171 264 171
267 0 3 -6 6 -12 6 -7 0 -38 -38 -68 -85 -51 -78 -79 -102 -72 -61 2 9 37 72
78 141 85 141 99 174 89 213 -4 15 -35 55 -71 89 -35 34 -64 68 -64 76 0 14
92 148 133 195 11 12 26 22 33 22 6 0 41 -21 75 -47z m-1923 -2017 c114 -16
136 -22 128 -34 -3 -6 -536 31 -553 37 -2 1 -3 6 -3 13 0 15 272 5 428 -16z
m451 -55 c36 -10 38 -31 3 -31 -63 0 -122 13 -122 26 0 15 73 18 119 5z
m-5145 -751 c42 -20 128 -110 183 -190 50 -73 127 -138 215 -180 112 -54 126
-50 37 11 -74 51 -159 126 -159 141 0 19 33 2 175 -87 147 -93 150 -94 155
-70 5 25 8 23 155 -70 199 -127 210 -139 209 -213 0 -41 -9 -75 -31 -124 -51
-110 -390 -602 -475 -690 -51 -53 -146 -102 -253 -133 -129 -37 -182 -80 -140
-115 8 -7 15 -17 15 -22 0 -5 -35 -73 -79 -151 -119 -215 -147 -274 -200 -430
-61 -178 -127 -311 -330 -659 -265 -455 -307 -519 -652 -989 -119 -163 -221
-305 -227 -315 -5 -11 -12 -36 -16 -56 -7 -39 -45 -78 -76 -78 -20 0 -41 -22
-63 -66 -9 -17 -37 -56 -62 -87 -56 -69 -70 -71 -193 -23 -159 61 -236 103
-303 165 -38 34 -104 80 -155 106 -49 26 -116 66 -150 89 -59 40 -264 244
-264 263 0 5 22 36 49 69 57 71 333 456 551 769 187 268 531 701 568 713 28 9
6 -35 -89 -179 -149 -225 -257 -398 -333 -536 -38 -68 -71 -123 -75 -123 -3 0
-13 4 -20 9 -9 6 -22 6 -31 1 -24 -13 -328 -386 -384 -473 -33 -50 3 -29 85
49 44 42 82 74 85 71 3 -3 -49 -85 -115 -182 -66 -98 -118 -182 -114 -188 3
-6 19 5 34 24 40 48 233 317 447 624 99 143 228 319 285 390 118 145 162 197
151 175 -7 -14 -547 -889 -653 -1058 -29 -46 -45 -80 -37 -75 8 5 132 182 274
393 436 649 697 1015 756 1059 52 39 71 71 63 104 -5 19 11 49 74 143 45 65
83 124 85 129 2 6 -16 23 -41 39 -40 25 -44 30 -33 45 8 9 35 42 62 74 l48 57
-41 51 c-23 29 -41 61 -41 74 0 33 247 288 302 311 32 13 73 18 158 19 l115 2
3 49 c3 46 -1 55 -53 128 -31 43 -54 80 -52 82 8 8 106 -27 200 -71 53 -25
100 -45 104 -45 5 0 -17 23 -47 51 -43 39 -50 48 -30 43 50 -13 95 -39 174
-102 105 -83 122 -91 140 -67 13 18 17 18 97 -18 46 -20 91 -37 98 -37 25 0
-46 66 -208 193 -97 77 -159 132 -168 153 -17 35 -13 89 43 504 29 219 33 234
90 326 48 78 54 115 28 165 -30 59 5 76 80 39z m-268 -537 c-3 -16 -15 -102
-26 -193 -25 -196 -29 -213 -50 -200 -12 7 -15 31 -14 112 0 109 13 182 46
261 23 52 53 66 44 20z"/>
<path d="M2775 12089 c-112 -122 -203 -271 -251 -413 -26 -76 -54 -210 -54
-260 0 -39 131 -345 148 -346 18 0 15 30 -22 210 -19 91 -37 199 -41 240 -13
145 34 280 143 407 71 82 155 210 143 218 -5 2 -34 -23 -66 -56z"/>
<path d="M4101 11842 c2 -6 63 -51 134 -100 157 -107 155 -105 155 -94 0 7
-84 67 -264 186 -16 11 -27 15 -25 8z"/>
<path d="M4826 11143 c-5 -6 135 -103 149 -103 19 0 -3 23 -47 51 -29 17 -62
38 -74 45 -11 8 -24 11 -28 7z"/>
<path d="M4790 9767 c0 -11 271 -188 282 -185 6 2 -45 39 -113 83 -68 43 -134
85 -146 93 -13 8 -23 12 -23 9z"/>
<path d="M5880 8973 c0 -7 47 -36 198 -121 23 -13 42 -19 42 -14 0 6 -50 39
-112 74 -130 73 -128 72 -128 61z"/>
<path d="M9390 8458 c2 -40 37 -183 45 -182 31 4 40 96 14 145 -12 24 -59 53
-59 37z"/>
<path d="M3990 5649 c0 -3 11 -39 25 -79 14 -42 25 -96 25 -127 0 -29 5 -53
10 -53 18 0 10 80 -16 158 -23 70 -43 115 -44 101z"/>
<path d="M4039 5345 c-27 -14 -59 -69 -59 -100 0 -22 10 -15 70 55 40 46 48
60 33 60 -10 -1 -30 -7 -44 -15z"/>
<path d="M2988 4382 c-21 -36 -24 -65 -53 -471 -31 -427 -31 -447 -5 -461 17
-9 20 -6 24 22 16 97 69 919 60 928 -6 6 -15 0 -26 -18z"/>
<path d="M2656 4356 c-7 -53 -26 -350 -26 -398 0 -27 4 -38 15 -38 8 0 15 7
15 14 0 21 29 362 34 412 5 35 2 43 -14 47 -16 4 -20 -2 -24 -37z"/>
<path d="M3122 4179 c-26 -63 -33 -181 -21 -343 11 -140 15 -162 35 -185 12
-14 25 -23 29 -19 8 8 -13 454 -25 528 -7 44 -7 44 -18 19z"/>
<path d="M3351 4137 c-37 -116 -78 -477 -54 -477 19 0 61 40 77 74 20 43 21
80 1 96 -19 16 -19 54 0 153 19 102 20 173 1 180 -10 4 -18 -4 -25 -26z"/>
<path d="M3457 4123 c-3 -21 -11 -93 -18 -160 -13 -134 -8 -153 38 -153 20 0
29 11 53 66 17 36 30 68 30 70 0 2 -16 4 -35 4 -40 0 -41 2 -24 97 13 75 6
113 -20 113 -14 0 -20 -10 -24 -37z"/>
<path d="M1489 2162 c-152 -180 -372 -499 -549 -797 -46 -77 -90 -151 -99
-165 -29 -49 7 -4 57 70 27 41 181 255 341 475 160 220 298 415 307 434 29 60
0 51 -57 -17z"/>
<path d="M1591 1874 c-70 -65 -94 -77 -72 -36 13 25 14 52 3 52 -13 0 -172
-189 -290 -345 -103 -136 -349 -500 -379 -560 -15 -29 -14 -29 15 5 16 19 206
239 421 488 215 249 391 455 391 458 0 14 -26 -4 -89 -62z"/>
<path d="M645 890 c-27 -39 -46 -73 -42 -76 3 -3 27 26 53 65 26 39 45 73 42
76 -3 3 -26 -26 -53 -65z"/>
</g>
</svg>
